<svg xmlns="http://www.w3.org/2000/svg" viewBox="0 0 1920 1080"><defs><style>.cls-1{fill:#af9fce;}.cls-2{fill:#d8d8d8;}.cls-3{fill:#f9cb64;}.cls-4{fill:#bcbbbb;}</style></defs><g id="Layer_1" data-name="Layer 1"><rect class="cls-1" width="1920" height="1080"/></g><g id="Layer_2" data-name="Layer 2"><path class="cls-2" d="M948,1080H825V687h82.88A40.12,40.12,0,0,1,948,727.12Z"/><path class="cls-3" d="M948,739H825V687h82.88A40.12,40.12,0,0,1,948,727.12Z"/><path class="cls-2" d="M1063,1080H958V828a45,45,0,0,1,45-45h60Z"/><path class="cls-3" d="M1063,828H958a45,45,0,0,1,45-45h60Z"/><path class="cls-2" d="M581,951H728a0,0,0,0,1,0,0v129a0,0,0,0,1,0,0H540a0,0,0,0,1,0,0V992A41,41,0,0,1,581,951Z"/><path class="cls-3" d="M581,951H723a0,0,0,0,1,0,0v41a0,0,0,0,1,0,0H540a0,0,0,0,1,0,0v0A41,41,0,0,1,581,951Z"/><path class="cls-2" d="M1204.21,936h126.73A35.05,35.05,0,0,1,1366,971.05V1080a0,0,0,0,1,0,0H1167a0,0,0,0,1,0,0V973.21A37.21,37.21,0,0,1,1204.21,936Z"/><path class="cls-2" d="M770.35,834H816a0,0,0,0,1,0,0v246a0,0,0,0,1,0,0H737a0,0,0,0,1,0,0V867.35A33.35,33.35,0,0,1,770.35,834Z"/><path class="cls-3" d="M770.35,834H816a0,0,0,0,1,0,0v41a0,0,0,0,1,0,0H737a0,0,0,0,1,0,0v-7.65A33.35,33.35,0,0,1,770.35,834Z"/><path class="cls-2" d="M647.42,880H728a0,0,0,0,1,0,0v135a0,0,0,0,1,0,0H608a0,0,0,0,1,0,0V919.42A39.42,39.42,0,0,1,647.42,880Z"/><path class="cls-3" d="M647.42,880H728a0,0,0,0,1,0,0v39.42a0,0,0,0,1,0,0H608a0,0,0,0,1,0,0v0A39.42,39.42,0,0,1,647.42,880Z"/><path class="cls-2" d="M359,879h53a0,0,0,0,1,0,0v201a0,0,0,0,1,0,0H325a0,0,0,0,1,0,0V913A34,34,0,0,1,359,879Z"/><path class="cls-3" d="M359,878h53a0,0,0,0,1,0,0v39a0,0,0,0,1,0,0H325a0,0,0,0,1,0,0v-5A34,34,0,0,1,359,878Z"/><path class="cls-2" d="M422,976h49.76A37.24,37.24,0,0,1,509,1013.24V1080a0,0,0,0,1,0,0H422a0,0,0,0,1,0,0V976A0,0,0,0,1,422,976Z"/><path class="cls-3" d="M422,975h49.76A37.24,37.24,0,0,1,509,1012.24v0a0,0,0,0,1,0,0H422a0,0,0,0,1,0,0V975A0,0,0,0,1,422,975Z"/><path class="cls-2" d="M142.38,976H288a0,0,0,0,1,0,0v104a0,0,0,0,1,0,0H108a0,0,0,0,1,0,0v-69.62A34.38,34.38,0,0,1,142.38,976Z"/><path class="cls-3" d="M142.38,975H288a0,0,0,0,1,0,0v34.38a0,0,0,0,1,0,0H108a0,0,0,0,1,0,0v0A34.38,34.38,0,0,1,142.38,975Z"/><path class="cls-2" d="M1429.35,970H1523a0,0,0,0,1,0,0v110a0,0,0,0,1,0,0H1391a0,0,0,0,1,0,0v-71.65A38.35,38.35,0,0,1,1429.35,970Z"/><path class="cls-3" d="M1429.35,969H1523a0,0,0,0,1,0,0v38.35a0,0,0,0,1,0,0H1391a0,0,0,0,1,0,0v0A38.35,38.35,0,0,1,1429.35,969Z"/><path class="cls-2" d="M1534,890h50.45A33.55,33.55,0,0,1,1618,923.55V1080a0,0,0,0,1,0,0h-84a0,0,0,0,1,0,0V890A0,0,0,0,1,1534,890Z"/><path class="cls-3" d="M1534,890h50.45A33.55,33.55,0,0,1,1618,923.55V930a0,0,0,0,1,0,0h-84a0,0,0,0,1,0,0V890A0,0,0,0,1,1534,890Z"/><path class="cls-2" d="M1659.92,936H1718a0,0,0,0,1,0,0v144a0,0,0,0,1,0,0h-91a0,0,0,0,1,0,0V968.92A32.92,32.92,0,0,1,1659.92,936Z"/><path class="cls-3" d="M1659.92,936H1718a0,0,0,0,1,0,0v45a0,0,0,0,1,0,0h-91a0,0,0,0,1,0,0V968.92A32.92,32.92,0,0,1,1659.92,936Z"/><path class="cls-2" d="M1728,834h49.42A35.58,35.58,0,0,1,1813,869.58V1080a0,0,0,0,1,0,0h-85a0,0,0,0,1,0,0V834A0,0,0,0,1,1728,834Z"/><path class="cls-3" d="M1728,833h49.42A35.58,35.58,0,0,1,1813,868.58V878a0,0,0,0,1,0,0h-85a0,0,0,0,1,0,0V833A0,0,0,0,1,1728,833Z"/><rect class="cls-2" x="1211" y="849" width="116" height="157" rx="34.55"/><path class="cls-2" d="M1244.55,850h46.9A34.55,34.55,0,0,1,1326,884.55V1080a0,0,0,0,1,0,0H1210a0,0,0,0,1,0,0V884.55A34.55,34.55,0,0,1,1244.55,850Z"/><path class="cls-3" d="M1204.21,935h126.73A35.05,35.05,0,0,1,1366,970.05V983a0,0,0,0,1,0,0H1167a0,0,0,0,1,0,0V972.21A37.21,37.21,0,0,1,1204.21,935Z"/><path class="cls-3" d="M1244.55,849h47.9A34.55,34.55,0,0,1,1327,883.55V893a0,0,0,0,1,0,0H1210a0,0,0,0,1,0,0v-9.45A34.55,34.55,0,0,1,1244.55,849Z"/><path class="cls-2" d="M1858.73,943H1920a0,0,0,0,1,0,0v137a0,0,0,0,1,0,0h-97a0,0,0,0,1,0,0V978.73A35.73,35.73,0,0,1,1858.73,943Z"/><path class="cls-3" d="M1858.73,942H1920a0,0,0,0,1,0,0v45a0,0,0,0,1,0,0h-97a0,0,0,0,1,0,0v-9.27A35.73,35.73,0,0,1,1858.73,942Z"/><path class="cls-2" d="M1073,971h50.71a34.29,34.29,0,0,1,34.29,34.29V1080a0,0,0,0,1,0,0h-85a0,0,0,0,1,0,0V971A0,0,0,0,1,1073,971Z"/><path class="cls-3" d="M1073,971h50.71a34.29,34.29,0,0,1,34.29,34.29V1011a0,0,0,0,1,0,0h-85a0,0,0,0,1,0,0V971A0,0,0,0,1,1073,971Z"/><path class="cls-2" d="M245,922h32.71A37.29,37.29,0,0,1,315,959.29V1080a0,0,0,0,1,0,0H245a0,0,0,0,1,0,0V922A0,0,0,0,1,245,922Z"/><path class="cls-3" d="M245,922h32.71A37.29,37.29,0,0,1,315,959.29v0a0,0,0,0,1,0,0H245a0,0,0,0,1,0,0V922A0,0,0,0,1,245,922Z"/><path class="cls-2" d="M1492.07,828H1525a0,0,0,0,1,0,0v252a0,0,0,0,1,0,0h-67a0,0,0,0,1,0,0V862.07A34.07,34.07,0,0,1,1492.07,828Z"/><path class="cls-3" d="M1492.07,827H1525a0,0,0,0,1,0,0v41a0,0,0,0,1,0,0h-67a0,0,0,0,1,0,0v-6.93A34.07,34.07,0,0,1,1492.07,827Z"/><path class="cls-2" d="M1,848H56.92A38.08,38.08,0,0,1,95,886.08V1080a0,0,0,0,1,0,0H1a0,0,0,0,1,0,0V848A0,0,0,0,1,1,848Z"/><path class="cls-3" d="M1,848H56.92A38.08,38.08,0,0,1,95,886.08v0a0,0,0,0,1,0,0H1a0,0,0,0,1,0,0V848A0,0,0,0,1,1,848Z"/><rect class="cls-4" x="75" y="896" width="10" height="29"/><rect class="cls-4" x="75" y="941" width="10" height="29"/><rect class="cls-4" x="75" y="986" width="10" height="29"/><rect class="cls-4" x="75" y="1031" width="10" height="29"/><rect class="cls-4" x="54" y="896" width="10" height="29"/><rect class="cls-4" x="54" y="941" width="10" height="29"/><rect class="cls-4" x="54" y="986" width="10" height="29"/><rect class="cls-4" x="54" y="1031" width="10" height="29"/><rect class="cls-4" x="33" y="896" width="10" height="29"/><rect class="cls-4" x="33" y="941" width="10" height="29"/><rect class="cls-4" x="33" y="986" width="10" height="29"/><rect class="cls-4" x="33" y="1031" width="10" height="29"/><rect class="cls-4" x="378" y="925" width="10" height="29"/><rect class="cls-4" x="357" y="925" width="10" height="29"/><rect class="cls-4" x="357" y="970" width="10" height="29"/><rect class="cls-4" x="357" y="1015" width="10" height="29"/><rect class="cls-4" x="336" y="925" width="10" height="29"/><rect class="cls-4" x="336" y="970" width="10" height="29"/><rect class="cls-4" x="336" y="1015" width="10" height="29"/><rect class="cls-4" x="12" y="896" width="10" height="29"/><rect class="cls-4" x="12" y="941" width="10" height="29"/><rect class="cls-4" x="12" y="986" width="10" height="29"/><rect class="cls-4" x="12" y="1031" width="10" height="29"/><rect class="cls-4" x="179" y="1019" width="10" height="29"/><rect class="cls-4" x="158" y="1019" width="10" height="29"/><rect class="cls-4" x="222" y="1019" width="10" height="29"/><rect class="cls-4" x="201" y="1019" width="10" height="29"/><rect class="cls-4" x="447" y="1022" width="10" height="29"/><rect class="cls-4" x="490" y="1022" width="10" height="29"/><rect class="cls-4" x="469" y="1022" width="10" height="29"/><rect class="cls-4" x="1095" y="1022" width="10" height="29"/><rect class="cls-4" x="1138" y="1022" width="10" height="29"/><rect class="cls-4" x="1117" y="1022" width="10" height="29"/><rect class="cls-4" x="570" y="1002" width="10" height="29"/><rect class="cls-4" x="549" y="1002" width="10" height="29"/><rect class="cls-4" x="293" y="971" width="10" height="29"/><rect class="cls-4" x="272" y="971" width="10" height="29"/><rect class="cls-4" x="293" y="1015" width="10" height="29"/><rect class="cls-4" x="272" y="1015" width="10" height="29"/><rect class="cls-4" x="137" y="1019" width="10" height="29"/><rect class="cls-4" x="116" y="1019" width="10" height="29"/><rect class="cls-4" x="929" y="750" width="10" height="29"/><rect class="cls-4" x="929" y="795" width="10" height="29"/><rect class="cls-4" x="929" y="840" width="10" height="29"/><rect class="cls-4" x="929" y="885" width="10" height="29"/><rect class="cls-4" x="908" y="750" width="10" height="29"/><rect class="cls-4" x="908" y="795" width="10" height="29"/><rect class="cls-4" x="908" y="840" width="10" height="29"/><rect class="cls-4" x="908" y="885" width="10" height="29"/><rect class="cls-4" x="768" y="887" width="10" height="29"/><rect class="cls-4" x="768" y="932" width="10" height="29"/><rect class="cls-4" x="768" y="977" width="10" height="29"/><rect class="cls-4" x="768" y="1022" width="10" height="29"/><rect class="cls-4" x="747" y="887" width="10" height="29"/><rect class="cls-4" x="747" y="932" width="10" height="29"/><rect class="cls-4" x="747" y="977" width="10" height="29"/><rect class="cls-4" x="747" y="1022" width="10" height="29"/><rect class="cls-4" x="929" y="930" width="10" height="29"/><rect class="cls-4" x="929" y="975" width="10" height="29"/><rect class="cls-4" x="929" y="1021" width="10" height="29"/><rect class="cls-4" x="908" y="930" width="10" height="29"/><rect class="cls-4" x="908" y="975" width="10" height="29"/><rect class="cls-4" x="887" y="750" width="10" height="29"/><rect class="cls-4" x="887" y="795" width="10" height="29"/><rect class="cls-4" x="887" y="840" width="10" height="29"/><rect class="cls-4" x="887" y="885" width="10" height="29"/><rect class="cls-4" x="866" y="750" width="10" height="29"/><rect class="cls-4" x="846" y="750" width="10" height="29"/><rect class="cls-4" x="866" y="795" width="10" height="29"/><rect class="cls-4" x="866" y="840" width="10" height="29"/><rect class="cls-4" x="684" y="933" width="10" height="29"/><rect class="cls-4" x="684" y="978" width="10" height="29"/><rect class="cls-4" x="684" y="1023" width="10" height="29"/><rect class="cls-4" x="663" y="933" width="10" height="29"/><rect class="cls-4" x="663" y="978" width="10" height="29"/><rect class="cls-4" x="663" y="1023" width="10" height="29"/><rect class="cls-4" x="642" y="933" width="10" height="29"/><rect class="cls-4" x="642" y="978" width="10" height="29"/><rect class="cls-4" x="642" y="1023" width="10" height="29"/><rect class="cls-4" x="620" y="933" width="10" height="29"/><rect class="cls-4" x="620" y="978" width="10" height="29"/><rect class="cls-4" x="620" y="1023" width="10" height="29"/><rect class="cls-4" x="988" y="842" width="10" height="29"/><rect class="cls-4" x="988" y="887" width="10" height="29"/><rect class="cls-4" x="988" y="932" width="10" height="29"/><rect class="cls-4" x="988" y="977" width="10" height="29"/><rect class="cls-4" x="967" y="842" width="10" height="29"/><rect class="cls-4" x="967" y="887" width="10" height="29"/><rect class="cls-4" x="967" y="932" width="10" height="29"/><rect class="cls-4" x="967" y="977" width="10" height="29"/><rect class="cls-4" x="1293" y="899" width="10" height="29"/><rect class="cls-4" x="1272" y="899" width="10" height="29"/><rect class="cls-4" x="1251" y="899" width="10" height="29"/><rect class="cls-4" x="1229" y="899" width="10" height="29"/><rect class="cls-4" x="1242" y="992" width="10" height="29"/><rect class="cls-4" x="1221" y="992" width="10" height="29"/><rect class="cls-4" x="1200" y="992" width="10" height="29"/><rect class="cls-4" x="1178" y="992" width="10" height="29"/><rect class="cls-4" x="1325" y="992" width="10" height="29"/><rect class="cls-4" x="1346" y="992" width="10" height="29"/><rect class="cls-4" x="1304" y="992" width="10" height="29"/><rect class="cls-4" x="1283" y="992" width="10" height="29"/><rect class="cls-4" x="1262" y="992" width="10" height="29"/><rect class="cls-4" x="1242" y="1037" width="10" height="29"/><rect class="cls-4" x="1221" y="1037" width="10" height="29"/><rect class="cls-4" x="1200" y="1037" width="10" height="29"/><rect class="cls-4" x="1178" y="1037" width="10" height="29"/><rect class="cls-4" x="1325" y="1037" width="10" height="29"/><rect class="cls-4" x="1346" y="1037" width="10" height="29"/><rect class="cls-4" x="1304" y="1037" width="10" height="29"/><rect class="cls-4" x="1283" y="1037" width="10" height="29"/><rect class="cls-4" x="1262" y="1037" width="10" height="29"/><rect class="cls-4" x="1422" y="1016" width="10" height="29"/><rect class="cls-4" x="1443" y="1016" width="10" height="29"/><rect class="cls-4" x="1401" y="1016" width="10" height="29"/><rect class="cls-4" x="1488" y="876" width="10" height="29"/><rect class="cls-4" x="1467" y="876" width="10" height="29"/><rect class="cls-4" x="1488" y="921" width="10" height="29"/><rect class="cls-4" x="1467" y="921" width="10" height="29"/><rect class="cls-4" x="1467" y="966" width="10" height="29"/><rect class="cls-4" x="549" y="1044" width="10" height="29"/><rect class="cls-4" x="1599" y="939" width="10" height="29"/><rect class="cls-4" x="1599" y="984" width="10" height="29"/><rect class="cls-4" x="1599" y="1029" width="10" height="29"/><rect class="cls-4" x="1578" y="939" width="10" height="29"/><rect class="cls-4" x="1578" y="984" width="10" height="29"/><rect class="cls-4" x="1578" y="1029" width="10" height="29"/><rect class="cls-4" x="1557" y="939" width="10" height="29"/><rect class="cls-4" x="1557" y="984" width="10" height="29"/><rect class="cls-4" x="1657" y="992" width="10" height="29"/><rect class="cls-4" x="1657" y="1037" width="10" height="29"/><rect class="cls-4" x="1636" y="992" width="10" height="29"/><rect class="cls-4" x="1636" y="1037" width="10" height="29"/><rect class="cls-4" x="1679" y="992" width="10" height="29"/><rect class="cls-4" x="1794" y="888" width="10" height="29"/><rect class="cls-4" x="1794" y="933" width="10" height="29"/><rect class="cls-4" x="1794" y="978" width="10" height="29"/><rect class="cls-4" x="1794" y="1023" width="10" height="29"/><rect class="cls-4" x="1773" y="888" width="10" height="29"/><rect class="cls-4" x="1773" y="933" width="10" height="29"/><rect class="cls-4" x="1773" y="978" width="10" height="29"/><rect class="cls-4" x="1752" y="888" width="10" height="29"/><rect class="cls-4" x="1752" y="933" width="10" height="29"/><rect class="cls-4" x="1875" y="998" width="10" height="29"/><rect class="cls-4" x="1875" y="1043" width="10" height="29"/><rect class="cls-4" x="1895" y="998" width="10" height="29"/><rect class="cls-4" x="1895" y="1043" width="10" height="29"/><rect class="cls-4" x="1854" y="998" width="10" height="29"/><rect class="cls-4" x="1854" y="1043" width="10" height="29"/><rect class="cls-4" x="1833" y="998" width="10" height="29"/><rect class="cls-4" x="1833" y="1043" width="10" height="29"/></g></svg>