<svg id="Layer_2" data-name="Layer 2" xmlns="http://www.w3.org/2000/svg" viewBox="0 0 1919 393"><defs><style>.cls-1{fill:#d8d8d8;}.cls-2{fill:#f9cb64;}.cls-3{fill:#bcbbbb;}</style></defs><path class="cls-1" d="M948,1080H825V687h82.88A40.12,40.12,0,0,1,948,727.12Z" transform="translate(-1 -687)"/><path class="cls-2" d="M948,739H825V687h82.88A40.12,40.12,0,0,1,948,727.12Z" transform="translate(-1 -687)"/><path class="cls-1" d="M1063,1080H958V828a45,45,0,0,1,45-45h60Z" transform="translate(-1 -687)"/><path class="cls-2" d="M1063,828H958a45,45,0,0,1,45-45h60Z" transform="translate(-1 -687)"/><path class="cls-1" d="M580,264H727a0,0,0,0,1,0,0V393a0,0,0,0,1,0,0H539a0,0,0,0,1,0,0V305A41,41,0,0,1,580,264Z"/><path class="cls-2" d="M580,264H722a0,0,0,0,1,0,0v41a0,0,0,0,1,0,0H539a0,0,0,0,1,0,0v0A41,41,0,0,1,580,264Z"/><path class="cls-1" d="M1203.21,249h126.73A35.05,35.05,0,0,1,1365,284.05V393a0,0,0,0,1,0,0H1166a0,0,0,0,1,0,0V286.21A37.21,37.21,0,0,1,1203.21,249Z"/><path class="cls-1" d="M769.35,147H815a0,0,0,0,1,0,0V393a0,0,0,0,1,0,0H736a0,0,0,0,1,0,0V180.35A33.35,33.35,0,0,1,769.35,147Z"/><path class="cls-2" d="M769.35,147H815a0,0,0,0,1,0,0v41a0,0,0,0,1,0,0H736a0,0,0,0,1,0,0v-7.65A33.35,33.35,0,0,1,769.35,147Z"/><path class="cls-1" d="M646.42,193H727a0,0,0,0,1,0,0V328a0,0,0,0,1,0,0H607a0,0,0,0,1,0,0V232.42A39.42,39.42,0,0,1,646.42,193Z"/><path class="cls-2" d="M646.42,193H727a0,0,0,0,1,0,0v39.42a0,0,0,0,1,0,0H607a0,0,0,0,1,0,0v0A39.42,39.42,0,0,1,646.42,193Z"/><path class="cls-1" d="M358,192h53a0,0,0,0,1,0,0V393a0,0,0,0,1,0,0H324a0,0,0,0,1,0,0V226A34,34,0,0,1,358,192Z"/><path class="cls-2" d="M358,191h53a0,0,0,0,1,0,0v39a0,0,0,0,1,0,0H324a0,0,0,0,1,0,0v-5A34,34,0,0,1,358,191Z"/><path class="cls-1" d="M421,289h49.76A37.24,37.24,0,0,1,508,326.24V393a0,0,0,0,1,0,0H421a0,0,0,0,1,0,0V289A0,0,0,0,1,421,289Z"/><path class="cls-2" d="M421,288h49.76A37.24,37.24,0,0,1,508,325.24v0a0,0,0,0,1,0,0H421a0,0,0,0,1,0,0V288A0,0,0,0,1,421,288Z"/><path class="cls-1" d="M141.38,289H287a0,0,0,0,1,0,0V393a0,0,0,0,1,0,0H107a0,0,0,0,1,0,0V323.38A34.38,34.38,0,0,1,141.38,289Z"/><path class="cls-2" d="M141.38,288H287a0,0,0,0,1,0,0v34.38a0,0,0,0,1,0,0H107a0,0,0,0,1,0,0v0A34.38,34.38,0,0,1,141.38,288Z"/><path class="cls-1" d="M1428.35,283H1522a0,0,0,0,1,0,0V393a0,0,0,0,1,0,0H1390a0,0,0,0,1,0,0V321.35A38.35,38.35,0,0,1,1428.35,283Z"/><path class="cls-2" d="M1428.35,282H1522a0,0,0,0,1,0,0v38.35a0,0,0,0,1,0,0H1390a0,0,0,0,1,0,0v0A38.35,38.35,0,0,1,1428.35,282Z"/><path class="cls-1" d="M1533,203h50.45A33.55,33.55,0,0,1,1617,236.55V393a0,0,0,0,1,0,0h-84a0,0,0,0,1,0,0V203A0,0,0,0,1,1533,203Z"/><path class="cls-2" d="M1533,203h50.45A33.55,33.55,0,0,1,1617,236.55V243a0,0,0,0,1,0,0h-84a0,0,0,0,1,0,0V203A0,0,0,0,1,1533,203Z"/><path class="cls-1" d="M1658.92,249H1717a0,0,0,0,1,0,0V393a0,0,0,0,1,0,0h-91a0,0,0,0,1,0,0V281.92A32.92,32.92,0,0,1,1658.92,249Z"/><path class="cls-2" d="M1658.92,249H1717a0,0,0,0,1,0,0v45a0,0,0,0,1,0,0h-91a0,0,0,0,1,0,0V281.92A32.92,32.92,0,0,1,1658.92,249Z"/><path class="cls-1" d="M1727,147h49.42A35.58,35.58,0,0,1,1812,182.58V393a0,0,0,0,1,0,0h-85a0,0,0,0,1,0,0V147A0,0,0,0,1,1727,147Z"/><path class="cls-2" d="M1727,146h49.42A35.58,35.58,0,0,1,1812,181.58V191a0,0,0,0,1,0,0h-85a0,0,0,0,1,0,0V146A0,0,0,0,1,1727,146Z"/><rect class="cls-1" x="1210" y="162" width="116" height="157" rx="34.55"/><path class="cls-1" d="M1243.55,163h46.9A34.55,34.55,0,0,1,1325,197.55V393a0,0,0,0,1,0,0H1209a0,0,0,0,1,0,0V197.55A34.55,34.55,0,0,1,1243.55,163Z"/><path class="cls-2" d="M1203.21,248h126.73A35.05,35.05,0,0,1,1365,283.05V296a0,0,0,0,1,0,0H1166a0,0,0,0,1,0,0V285.21A37.21,37.21,0,0,1,1203.21,248Z"/><path class="cls-2" d="M1243.55,162h47.9A34.55,34.55,0,0,1,1326,196.55V206a0,0,0,0,1,0,0H1209a0,0,0,0,1,0,0v-9.45A34.55,34.55,0,0,1,1243.55,162Z"/><path class="cls-1" d="M1857.73,256H1919a0,0,0,0,1,0,0V393a0,0,0,0,1,0,0h-97a0,0,0,0,1,0,0V291.73A35.73,35.73,0,0,1,1857.73,256Z"/><path class="cls-2" d="M1857.73,255H1919a0,0,0,0,1,0,0v45a0,0,0,0,1,0,0h-97a0,0,0,0,1,0,0v-9.27A35.73,35.73,0,0,1,1857.73,255Z"/><path class="cls-1" d="M1072,284h50.71A34.29,34.29,0,0,1,1157,318.29V393a0,0,0,0,1,0,0h-85a0,0,0,0,1,0,0V284A0,0,0,0,1,1072,284Z"/><path class="cls-2" d="M1072,284h50.71A34.29,34.29,0,0,1,1157,318.29V324a0,0,0,0,1,0,0h-85a0,0,0,0,1,0,0V284A0,0,0,0,1,1072,284Z"/><path class="cls-1" d="M244,235h32.71A37.29,37.29,0,0,1,314,272.29V393a0,0,0,0,1,0,0H244a0,0,0,0,1,0,0V235A0,0,0,0,1,244,235Z"/><path class="cls-2" d="M244,235h32.71A37.29,37.29,0,0,1,314,272.29v0a0,0,0,0,1,0,0H244a0,0,0,0,1,0,0V235A0,0,0,0,1,244,235Z"/><path class="cls-1" d="M1491.07,141H1524a0,0,0,0,1,0,0V393a0,0,0,0,1,0,0h-67a0,0,0,0,1,0,0V175.07A34.07,34.07,0,0,1,1491.07,141Z"/><path class="cls-2" d="M1491.07,140H1524a0,0,0,0,1,0,0v41a0,0,0,0,1,0,0h-67a0,0,0,0,1,0,0v-6.93A34.07,34.07,0,0,1,1491.07,140Z"/><path class="cls-1" d="M0,161H55.92A38.08,38.08,0,0,1,94,199.08V393a0,0,0,0,1,0,0H0a0,0,0,0,1,0,0V161A0,0,0,0,1,0,161Z"/><path class="cls-2" d="M0,161H55.92A38.08,38.08,0,0,1,94,199.08v0a0,0,0,0,1,0,0H0a0,0,0,0,1,0,0V161A0,0,0,0,1,0,161Z"/><rect class="cls-3" x="74" y="209" width="10" height="29"/><rect class="cls-3" x="74" y="254" width="10" height="29"/><rect class="cls-3" x="74" y="299" width="10" height="29"/><rect class="cls-3" x="74" y="344" width="10" height="29"/><rect class="cls-3" x="53" y="209" width="10" height="29"/><rect class="cls-3" x="53" y="254" width="10" height="29"/><rect class="cls-3" x="53" y="299" width="10" height="29"/><rect class="cls-3" x="53" y="344" width="10" height="29"/><rect class="cls-3" x="32" y="209" width="10" height="29"/><rect class="cls-3" x="32" y="254" width="10" height="29"/><rect class="cls-3" x="32" y="299" width="10" height="29"/><rect class="cls-3" x="32" y="344" width="10" height="29"/><rect class="cls-3" x="377" y="238" width="10" height="29"/><rect class="cls-3" x="356" y="238" width="10" height="29"/><rect class="cls-3" x="356" y="283" width="10" height="29"/><rect class="cls-3" x="356" y="328" width="10" height="29"/><rect class="cls-3" x="335" y="238" width="10" height="29"/><rect class="cls-3" x="335" y="283" width="10" height="29"/><rect class="cls-3" x="335" y="328" width="10" height="29"/><rect class="cls-3" x="11" y="209" width="10" height="29"/><rect class="cls-3" x="11" y="254" width="10" height="29"/><rect class="cls-3" x="11" y="299" width="10" height="29"/><rect class="cls-3" x="11" y="344" width="10" height="29"/><rect class="cls-3" x="178" y="332" width="10" height="29"/><rect class="cls-3" x="157" y="332" width="10" height="29"/><rect class="cls-3" x="221" y="332" width="10" height="29"/><rect class="cls-3" x="200" y="332" width="10" height="29"/><rect class="cls-3" x="446" y="335" width="10" height="29"/><rect class="cls-3" x="489" y="335" width="10" height="29"/><rect class="cls-3" x="468" y="335" width="10" height="29"/><rect class="cls-3" x="1094" y="335" width="10" height="29"/><rect class="cls-3" x="1137" y="335" width="10" height="29"/><rect class="cls-3" x="1116" y="335" width="10" height="29"/><rect class="cls-3" x="569" y="315" width="10" height="29"/><rect class="cls-3" x="548" y="315" width="10" height="29"/><rect class="cls-3" x="292" y="284" width="10" height="29"/><rect class="cls-3" x="271" y="284" width="10" height="29"/><rect class="cls-3" x="292" y="328" width="10" height="29"/><rect class="cls-3" x="271" y="328" width="10" height="29"/><rect class="cls-3" x="136" y="332" width="10" height="29"/><rect class="cls-3" x="115" y="332" width="10" height="29"/><rect class="cls-3" x="928" y="63" width="10" height="29"/><rect class="cls-3" x="928" y="108" width="10" height="29"/><rect class="cls-3" x="928" y="153" width="10" height="29"/><rect class="cls-3" x="928" y="198" width="10" height="29"/><rect class="cls-3" x="907" y="63" width="10" height="29"/><rect class="cls-3" x="907" y="108" width="10" height="29"/><rect class="cls-3" x="907" y="153" width="10" height="29"/><rect class="cls-3" x="907" y="198" width="10" height="29"/><rect class="cls-3" x="767" y="200" width="10" height="29"/><rect class="cls-3" x="767" y="245" width="10" height="29"/><rect class="cls-3" x="767" y="290" width="10" height="29"/><rect class="cls-3" x="767" y="335" width="10" height="29"/><rect class="cls-3" x="746" y="200" width="10" height="29"/><rect class="cls-3" x="746" y="245" width="10" height="29"/><rect class="cls-3" x="746" y="290" width="10" height="29"/><rect class="cls-3" x="746" y="335" width="10" height="29"/><rect class="cls-3" x="928" y="243" width="10" height="29"/><rect class="cls-3" x="928" y="288" width="10" height="29"/><rect class="cls-3" x="928" y="334" width="10" height="29"/><rect class="cls-3" x="907" y="243" width="10" height="29"/><rect class="cls-3" x="907" y="288" width="10" height="29"/><rect class="cls-3" x="886" y="63" width="10" height="29"/><rect class="cls-3" x="886" y="108" width="10" height="29"/><rect class="cls-3" x="886" y="153" width="10" height="29"/><rect class="cls-3" x="886" y="198" width="10" height="29"/><rect class="cls-3" x="865" y="63" width="10" height="29"/><rect class="cls-3" x="845" y="63" width="10" height="29"/><rect class="cls-3" x="865" y="108" width="10" height="29"/><rect class="cls-3" x="865" y="153" width="10" height="29"/><rect class="cls-3" x="683" y="246" width="10" height="29"/><rect class="cls-3" x="683" y="291" width="10" height="29"/><rect class="cls-3" x="683" y="336" width="10" height="29"/><rect class="cls-3" x="662" y="246" width="10" height="29"/><rect class="cls-3" x="662" y="291" width="10" height="29"/><rect class="cls-3" x="662" y="336" width="10" height="29"/><rect class="cls-3" x="641" y="246" width="10" height="29"/><rect class="cls-3" x="641" y="291" width="10" height="29"/><rect class="cls-3" x="641" y="336" width="10" height="29"/><rect class="cls-3" x="619" y="246" width="10" height="29"/><rect class="cls-3" x="619" y="291" width="10" height="29"/><rect class="cls-3" x="619" y="336" width="10" height="29"/><rect class="cls-3" x="987" y="155" width="10" height="29"/><rect class="cls-3" x="987" y="200" width="10" height="29"/><rect class="cls-3" x="987" y="245" width="10" height="29"/><rect class="cls-3" x="987" y="290" width="10" height="29"/><rect class="cls-3" x="966" y="155" width="10" height="29"/><rect class="cls-3" x="966" y="200" width="10" height="29"/><rect class="cls-3" x="966" y="245" width="10" height="29"/><rect class="cls-3" x="966" y="290" width="10" height="29"/><rect class="cls-3" x="1292" y="212" width="10" height="29"/><rect class="cls-3" x="1271" y="212" width="10" height="29"/><rect class="cls-3" x="1250" y="212" width="10" height="29"/><rect class="cls-3" x="1228" y="212" width="10" height="29"/><rect class="cls-3" x="1241" y="305" width="10" height="29"/><rect class="cls-3" x="1220" y="305" width="10" height="29"/><rect class="cls-3" x="1199" y="305" width="10" height="29"/><rect class="cls-3" x="1177" y="305" width="10" height="29"/><rect class="cls-3" x="1324" y="305" width="10" height="29"/><rect class="cls-3" x="1345" y="305" width="10" height="29"/><rect class="cls-3" x="1303" y="305" width="10" height="29"/><rect class="cls-3" x="1282" y="305" width="10" height="29"/><rect class="cls-3" x="1261" y="305" width="10" height="29"/><rect class="cls-3" x="1241" y="350" width="10" height="29"/><rect class="cls-3" x="1220" y="350" width="10" height="29"/><rect class="cls-3" x="1199" y="350" width="10" height="29"/><rect class="cls-3" x="1177" y="350" width="10" height="29"/><rect class="cls-3" x="1324" y="350" width="10" height="29"/><rect class="cls-3" x="1345" y="350" width="10" height="29"/><rect class="cls-3" x="1303" y="350" width="10" height="29"/><rect class="cls-3" x="1282" y="350" width="10" height="29"/><rect class="cls-3" x="1261" y="350" width="10" height="29"/><rect class="cls-3" x="1421" y="329" width="10" height="29"/><rect class="cls-3" x="1442" y="329" width="10" height="29"/><rect class="cls-3" x="1400" y="329" width="10" height="29"/><rect class="cls-3" x="1487" y="189" width="10" height="29"/><rect class="cls-3" x="1466" y="189" width="10" height="29"/><rect class="cls-3" x="1487" y="234" width="10" height="29"/><rect class="cls-3" x="1466" y="234" width="10" height="29"/><rect class="cls-3" x="1466" y="279" width="10" height="29"/><rect class="cls-3" x="548" y="357" width="10" height="29"/><rect class="cls-3" x="1598" y="252" width="10" height="29"/><rect class="cls-3" x="1598" y="297" width="10" height="29"/><rect class="cls-3" x="1598" y="342" width="10" height="29"/><rect class="cls-3" x="1577" y="252" width="10" height="29"/><rect class="cls-3" x="1577" y="297" width="10" height="29"/><rect class="cls-3" x="1577" y="342" width="10" height="29"/><rect class="cls-3" x="1556" y="252" width="10" height="29"/><rect class="cls-3" x="1556" y="297" width="10" height="29"/><rect class="cls-3" x="1656" y="305" width="10" height="29"/><rect class="cls-3" x="1656" y="350" width="10" height="29"/><rect class="cls-3" x="1635" y="305" width="10" height="29"/><rect class="cls-3" x="1635" y="350" width="10" height="29"/><rect class="cls-3" x="1678" y="305" width="10" height="29"/><rect class="cls-3" x="1793" y="201" width="10" height="29"/><rect class="cls-3" x="1793" y="246" width="10" height="29"/><rect class="cls-3" x="1793" y="291" width="10" height="29"/><rect class="cls-3" x="1793" y="336" width="10" height="29"/><rect class="cls-3" x="1772" y="201" width="10" height="29"/><rect class="cls-3" x="1772" y="246" width="10" height="29"/><rect class="cls-3" x="1772" y="291" width="10" height="29"/><rect class="cls-3" x="1751" y="201" width="10" height="29"/><rect class="cls-3" x="1751" y="246" width="10" height="29"/><rect class="cls-3" x="1874" y="311" width="10" height="29"/><rect class="cls-3" x="1874" y="356" width="10" height="29"/><rect class="cls-3" x="1894" y="311" width="10" height="29"/><rect class="cls-3" x="1894" y="356" width="10" height="29"/><rect class="cls-3" x="1853" y="311" width="10" height="29"/><rect class="cls-3" x="1853" y="356" width="10" height="29"/><rect class="cls-3" x="1832" y="311" width="10" height="29"/><rect class="cls-3" x="1832" y="356" width="10" height="29"/></svg>